<svg width="24" height="16" viewBox="0 0 24 16" fill="none" xmlns="http://www.w3.org/2000/svg">
<path d="M1.17969 7C0.627403 7 0.179688 7.44772 0.179688 8C0.179688 8.55228 0.627403 9 1.17969 9V7ZM23.4832 8.70711C23.8738 8.31658 23.8738 7.68342 23.4832 7.29289L17.1193 0.928932C16.7287 0.538408 16.0956 0.538408 15.7051 0.928932C15.3145 1.31946 15.3145 1.95262 15.7051 2.34315L21.3619 8L15.7051 13.6569C15.3145 14.0474 15.3145 14.6805 15.7051 15.0711C16.0956 15.4616 16.7287 15.4616 17.1193 15.0711L23.4832 8.70711ZM1.17969 8V9L22.7761 9V8V7L1.17969 7V8Z" fill="#5D3740"/>
</svg>
