<svg width="25" height="16" viewBox="0 0 25 16" fill="none" xmlns="http://www.w3.org/2000/svg">
<path d="M1.70312 7.06836C1.15084 7.06836 0.703125 7.51607 0.703125 8.06836C0.703125 8.62064 1.15084 9.06836 1.70312 9.06836V7.06836ZM24.0067 8.77547C24.3972 8.38494 24.3972 7.75178 24.0067 7.36125L17.6427 0.997292C17.2522 0.606767 16.619 0.606767 16.2285 0.997292C15.838 1.38782 15.838 2.02098 16.2285 2.41151L21.8854 8.06836L16.2285 13.7252C15.838 14.1157 15.838 14.7489 16.2285 15.1394C16.619 15.53 17.2522 15.53 17.6427 15.1394L24.0067 8.77547ZM1.70312 8.06836V9.06836L23.2996 9.06836V8.06836V7.06836L1.70312 7.06836V8.06836Z" fill="white"/>
</svg>
