<svg width="25" height="16" viewBox="0 0 25 16" fill="none" xmlns="http://www.w3.org/2000/svg">
<path d="M1.70312 7C1.15084 7 0.703125 7.44772 0.703125 8C0.703125 8.55228 1.15084 9 1.70312 9V7ZM24.0067 8.70711C24.3972 8.31658 24.3972 7.68342 24.0067 7.29289L17.6427 0.928932C17.2522 0.538408 16.619 0.538408 16.2285 0.928932C15.838 1.31946 15.838 1.95262 16.2285 2.34315L21.8854 8L16.2285 13.6569C15.838 14.0474 15.838 14.6805 16.2285 15.0711C16.619 15.4616 17.2522 15.4616 17.6427 15.0711L24.0067 8.70711ZM1.70312 8V9L23.2996 9V8V7L1.70312 7V8Z" fill="white"/>
</svg>
